<?xml version="1.0" encoding="UTF-8" standalone="no"?><svg xmlns="http://www.w3.org/2000/svg" xmlns:xlink="http://www.w3.org/1999/xlink" contentScriptType="application/ecmascript" contentStyleType="text/css" height="522px" preserveAspectRatio="none" style="width:480px;height:522px;" version="1.1" viewBox="0 0 480 522" width="480px" zoomAndPan="magnify"><defs><filter height="300%" id="f1m02t8c66elrn" width="300%" x="-1" y="-1"><feGaussianBlur result="blurOut" stdDeviation="2.0"/><feColorMatrix in="blurOut" result="blurOut2" type="matrix" values="0 0 0 0 0 0 0 0 0 0 0 0 0 0 0 0 0 0 .4 0"/><feOffset dx="4.0" dy="4.0" in="blurOut2" result="blurOut3"/><feBlend in="SourceGraphic" in2="blurOut3" mode="normal"/></filter></defs><g><text fill="#000000" font-family="sans-serif" font-size="18" lengthAdjust="spacingAndGlyphs" textLength="296" x="98" y="16.708">Service landscape - central proxy</text><!--cluster namespace: Service--><polygon fill="#ADD8E6" filter="url(#f1m02t8c66elrn)" points="22,44.9531,188,44.9531,195,67.25,458,67.25,458,450.9531,22,450.9531,22,44.9531" style="stroke: #000000; stroke-width: 2.0;"/><line style="stroke: #000000; stroke-width: 2.0;" x1="22" x2="195" y1="67.25" y2="67.25"/><text fill="#000000" font-family="sans-serif" font-size="14" font-weight="bold" lengthAdjust="spacingAndGlyphs" textLength="160" x="26" y="59.9482">namespace: Service</text><!--cluster pod: Application 1--><polygon fill="#FFFFFF" filter="url(#f1m02t8c66elrn)" points="149,87.9531,298,87.9531,305,110.25,331,110.25,331,184.9531,149,184.9531,149,87.9531" style="stroke: #000000; stroke-width: 2.0;"/><line style="stroke: #000000; stroke-width: 2.0;" x1="149" x2="305" y1="110.25" y2="110.25"/><text fill="#000000" font-family="sans-serif" font-size="14" font-weight="bold" lengthAdjust="spacingAndGlyphs" textLength="143" x="153" y="102.9482">pod: Application 1</text><!--cluster pod: Proxy--><polygon fill="#FFFFFF" filter="url(#f1m02t8c66elrn)" points="148,208.9531,240,208.9531,247,231.25,332,231.25,332,305.9531,148,305.9531,148,208.9531" style="stroke: #000000; stroke-width: 2.0;"/><line style="stroke: #000000; stroke-width: 2.0;" x1="148" x2="247" y1="231.25" y2="231.25"/><text fill="#000000" font-family="sans-serif" font-size="14" font-weight="bold" lengthAdjust="spacingAndGlyphs" textLength="86" x="152" y="223.9482">pod: Proxy</text><!--cluster pod: Application 2--><polygon fill="#FFFFFF" filter="url(#f1m02t8c66elrn)" points="46,329.9531,195,329.9531,202,352.25,228,352.25,228,426.9531,46,426.9531,46,329.9531" style="stroke: #000000; stroke-width: 2.0;"/><line style="stroke: #000000; stroke-width: 2.0;" x1="46" x2="202" y1="352.25" y2="352.25"/><text fill="#000000" font-family="sans-serif" font-size="14" font-weight="bold" lengthAdjust="spacingAndGlyphs" textLength="143" x="50" y="344.9482">pod: Application 2</text><!--cluster pod: Application 3--><polygon fill="#FFFFFF" filter="url(#f1m02t8c66elrn)" points="252,329.9531,401,329.9531,408,352.25,434,352.25,434,426.9531,252,426.9531,252,329.9531" style="stroke: #000000; stroke-width: 2.0;"/><line style="stroke: #000000; stroke-width: 2.0;" x1="252" x2="408" y1="352.25" y2="352.25"/><text fill="#000000" font-family="sans-serif" font-size="14" font-weight="bold" lengthAdjust="spacingAndGlyphs" textLength="143" x="256" y="344.9482">pod: Application 3</text><!--entity APP1--><rect fill="#FEFECE" filter="url(#f1m02t8c66elrn)" height="46.2969" style="stroke: #A80036; stroke-width: 1.5;" width="150" x="165" y="122.9531"/><rect fill="#FEFECE" height="10" style="stroke: #A80036; stroke-width: 1.5;" width="15" x="295" y="127.9531"/><rect fill="#FEFECE" height="2" style="stroke: #A80036; stroke-width: 1.5;" width="4" x="293" y="129.9531"/><rect fill="#FEFECE" height="2" style="stroke: #A80036; stroke-width: 1.5;" width="4" x="293" y="133.9531"/><text fill="#000000" font-family="sans-serif" font-size="14" lengthAdjust="spacingAndGlyphs" textLength="110" x="180" y="155.9482">container: APP1</text><!--entity Proxy--><rect fill="#FEFECE" filter="url(#f1m02t8c66elrn)" height="46.2969" style="stroke: #A80036; stroke-width: 1.5;" width="151" x="164.5" y="243.9531"/><rect fill="#FEFECE" height="10" style="stroke: #A80036; stroke-width: 1.5;" width="15" x="295.5" y="248.9531"/><rect fill="#FEFECE" height="2" style="stroke: #A80036; stroke-width: 1.5;" width="4" x="293.5" y="250.9531"/><rect fill="#FEFECE" height="2" style="stroke: #A80036; stroke-width: 1.5;" width="4" x="293.5" y="254.9531"/><text fill="#000000" font-family="sans-serif" font-size="14" lengthAdjust="spacingAndGlyphs" textLength="111" x="179.5" y="276.9482">container: Proxy</text><!--entity APP2--><rect fill="#FEFECE" filter="url(#f1m02t8c66elrn)" height="46.2969" style="stroke: #A80036; stroke-width: 1.5;" width="150" x="62" y="364.9531"/><rect fill="#FEFECE" height="10" style="stroke: #A80036; stroke-width: 1.5;" width="15" x="192" y="369.9531"/><rect fill="#FEFECE" height="2" style="stroke: #A80036; stroke-width: 1.5;" width="4" x="190" y="371.9531"/><rect fill="#FEFECE" height="2" style="stroke: #A80036; stroke-width: 1.5;" width="4" x="190" y="375.9531"/><text fill="#000000" font-family="sans-serif" font-size="14" lengthAdjust="spacingAndGlyphs" textLength="110" x="77" y="397.9482">container: APP2</text><!--entity APP3--><rect fill="#FEFECE" filter="url(#f1m02t8c66elrn)" height="46.2969" style="stroke: #A80036; stroke-width: 1.5;" width="150" x="268" y="364.9531"/><rect fill="#FEFECE" height="10" style="stroke: #A80036; stroke-width: 1.5;" width="15" x="398" y="369.9531"/><rect fill="#FEFECE" height="2" style="stroke: #A80036; stroke-width: 1.5;" width="4" x="396" y="371.9531"/><rect fill="#FEFECE" height="2" style="stroke: #A80036; stroke-width: 1.5;" width="4" x="396" y="375.9531"/><text fill="#000000" font-family="sans-serif" font-size="14" lengthAdjust="spacingAndGlyphs" textLength="110" x="283" y="397.9482">container: APP3</text><!--link APP1 to Proxy--><path d="M229.823,169.0571 C226.674,188.6381 226.416,217.3041 229.046,238.3791 " fill="none" id="APP1-Proxy" style="stroke: #A80036; stroke-width: 1.0;"/><polygon fill="#A80036" points="229.777,243.5631,232.4805,234.0926,229.0785,238.6122,224.5589,235.2102,229.777,243.5631" style="stroke: #A80036; stroke-width: 1.0;"/><!--link APP1 to Proxy--><path d="M251.557,174.2211 C254.372,195.2221 254.128,223.8951 250.824,243.5631 " fill="none" id="APP1-Proxy" style="stroke: #A80036; stroke-width: 1.0;"/><polygon fill="#A80036" points="250.776,169.0571,248.1687,178.5546,251.5247,174.0008,256.0785,177.3567,250.776,169.0571" style="stroke: #A80036; stroke-width: 1.0;"/><!--link Proxy to APP2--><path d="M207.065,293.6341 C185.904,314.7581 160.413,344.3951 146.157,364.5631 " fill="none" id="Proxy-APP2" style="stroke: #A80036; stroke-width: 1.0;"/><polygon fill="#A80036" points="210.691,290.0571,201.4752,293.5313,207.132,293.569,207.0943,299.2257,210.691,290.0571" style="stroke: #A80036; stroke-width: 1.0;"/><!--link Proxy to APP2--><path d="M231.644,290.0571 C217.683,310.1351 192.236,339.7681 170.868,360.9721 " fill="none" id="Proxy-APP2" style="stroke: #A80036; stroke-width: 1.0;"/><polygon fill="#A80036" points="167.203,364.5631,176.4299,361.1188,170.7734,361.0628,170.8294,355.4062,167.203,364.5631" style="stroke: #A80036; stroke-width: 1.0;"/><!--link Proxy to APP3--><path d="M251.905,294.1601 C267.354,315.2471 292.913,344.5621 313.398,364.5631 " fill="none" id="Proxy-APP3" style="stroke: #A80036; stroke-width: 1.0;"/><polygon fill="#A80036" points="248.955,290.0571,250.962,299.6993,251.8742,294.1165,257.457,295.0287,248.955,290.0571" style="stroke: #A80036; stroke-width: 1.0;"/><!--link Proxy to APP3--><path d="M269.908,290.0571 C290.533,309.9691 316.128,339.2791 331.509,360.4441 " fill="none" id="Proxy-APP3" style="stroke: #A80036; stroke-width: 1.0;"/><polygon fill="#A80036" points="334.445,364.5631,332.4794,354.9124,331.5433,360.4913,325.9644,359.5552,334.445,364.5631" style="stroke: #A80036; stroke-width: 1.0;"/><rect fill="#DDDDDD" height="26.2969" rx="5" ry="5" style="stroke: #000000; stroke-width: 1.0;" width="155" x="168" y="484.9531"/><text fill="#000000" font-family="sans-serif" font-size="14" lengthAdjust="spacingAndGlyphs" textLength="143" x="174" y="502.9482">Connections : 2(n-1)</text><!--
@startuml

title Service landscape - central proxy
skinparam componentStyle uml2

package "namespace: Service" #LightBlue {
  package "pod: Application 1" #White {
    component "container: APP1" as APP1
  }

  package "pod: Proxy" #White {
  component "container: Proxy" as Proxy
  }

  package "pod: Application 2" #White {
    component "container: APP2" as APP2
  }

  package "pod: Application 3" #White {
   component "container: APP3" as APP3
  }

}

APP1 -d-> Proxy
Proxy -u-> APP1

APP2 -u-> Proxy
Proxy -d-> APP2

APP3 -u-> Proxy
Proxy -d-> APP3

legend
  Connections : 2(n-1)
end legend

@enduml

PlantUML version 1.2017.19(Sun Nov 12 22:46:22 AEDT 2017)
(GPL source distribution)
Java Runtime: Java(TM) SE Runtime Environment
JVM: Java HotSpot(TM) 64-Bit Server VM
Java Version: 1.8.0_191-b12
Operating System: Linux
OS Version: 4.4.0-137-generic
Default Encoding: UTF-8
Language: en
Country: US
--></g></svg>