<?xml version="1.0" encoding="UTF-8" standalone="no"?><svg xmlns="http://www.w3.org/2000/svg" xmlns:xlink="http://www.w3.org/1999/xlink" contentScriptType="application/ecmascript" contentStyleType="text/css" height="781px" preserveAspectRatio="none" style="width:949px;height:781px;" version="1.1" viewBox="0 0 949 781" width="949px" zoomAndPan="magnify"><defs><filter height="300%" id="f1q890q1scem1z" width="300%" x="-1" y="-1"><feGaussianBlur result="blurOut" stdDeviation="2.0"/><feColorMatrix in="blurOut" result="blurOut2" type="matrix" values="0 0 0 0 0 0 0 0 0 0 0 0 0 0 0 0 0 0 .4 0"/><feOffset dx="4.0" dy="4.0" in="blurOut2" result="blurOut3"/><feBlend in="SourceGraphic" in2="blurOut3" mode="normal"/></filter></defs><g><text fill="#000000" font-family="sans-serif" font-size="18" lengthAdjust="spacingAndGlyphs" textLength="214" x="373.5" y="16.708">Service landscape - Istio</text><!--cluster namespace: Control Plane--><polygon fill="#FFA07A" filter="url(#f1q890q1scem1z)" points="22,358.9531,235,358.9531,242,381.25,303,381.25,303,677.9531,22,677.9531,22,358.9531" style="stroke: #000000; stroke-width: 2.0;"/><line style="stroke: #000000; stroke-width: 2.0;" x1="22" x2="242" y1="381.25" y2="381.25"/><text fill="#000000" font-family="sans-serif" font-size="14" font-weight="bold" lengthAdjust="spacingAndGlyphs" textLength="207" x="26" y="373.9482">namespace: Control Plane</text><!--cluster pod: Pilot--><polygon fill="#FFFFFF" filter="url(#f1q890q1scem1z)" points="137,401.9531,218,401.9531,225,424.25,279,424.25,279,515.9531,137,515.9531,137,401.9531" style="stroke: #000000; stroke-width: 2.0;"/><line style="stroke: #000000; stroke-width: 2.0;" x1="137" x2="225" y1="424.25" y2="424.25"/><text fill="#000000" font-family="sans-serif" font-size="14" font-weight="bold" lengthAdjust="spacingAndGlyphs" textLength="75" x="141" y="416.9482">pod: Pilot</text><!--cluster pod: Mixer--><polygon fill="#FFFFFF" filter="url(#f1q890q1scem1z)" points="137,539.9531,227,539.9531,234,562.25,279,562.25,279,653.9531,137,653.9531,137,539.9531" style="stroke: #000000; stroke-width: 2.0;"/><line style="stroke: #000000; stroke-width: 2.0;" x1="137" x2="234" y1="562.25" y2="562.25"/><text fill="#000000" font-family="sans-serif" font-size="14" font-weight="bold" lengthAdjust="spacingAndGlyphs" textLength="84" x="141" y="554.9482">pod: Mixer</text><!--cluster namespace: Application Service--><polygon fill="#ADD8E6" filter="url(#f1q890q1scem1z)" points="327,44.9531,585,44.9531,592,67.25,765,67.25,765,677.9531,327,677.9531,327,44.9531" style="stroke: #000000; stroke-width: 2.0;"/><line style="stroke: #000000; stroke-width: 2.0;" x1="327" x2="592" y1="67.25" y2="67.25"/><text fill="#000000" font-family="sans-serif" font-size="14" font-weight="bold" lengthAdjust="spacingAndGlyphs" textLength="252" x="331" y="59.9482">namespace: Application Service</text><!--cluster pod: Application 1--><polygon fill="#FFFFFF" filter="url(#f1q890q1scem1z)" points="351,87.9531,500,87.9531,507,110.25,527,110.25,527,334.9531,351,334.9531,351,87.9531" style="stroke: #000000; stroke-width: 2.0;"/><line style="stroke: #000000; stroke-width: 2.0;" x1="351" x2="507" y1="110.25" y2="110.25"/><text fill="#000000" font-family="sans-serif" font-size="14" font-weight="bold" lengthAdjust="spacingAndGlyphs" textLength="143" x="355" y="102.9482">pod: Application 1</text><!--cluster pod: Application 2--><polygon fill="#FFFFFF" filter="url(#f1q890q1scem1z)" points="353,401.9531,502,401.9531,509,424.25,529,424.25,529,653.9531,353,653.9531,353,401.9531" style="stroke: #000000; stroke-width: 2.0;"/><line style="stroke: #000000; stroke-width: 2.0;" x1="353" x2="509" y1="424.25" y2="424.25"/><text fill="#000000" font-family="sans-serif" font-size="14" font-weight="bold" lengthAdjust="spacingAndGlyphs" textLength="143" x="357" y="416.9482">pod: Application 2</text><!--cluster pod: Ingress--><polygon fill="#FFFFFF" filter="url(#f1q890q1scem1z)" points="551,220.9531,657,220.9531,664,243.25,741,243.25,741,334.9531,551,334.9531,551,220.9531" style="stroke: #000000; stroke-width: 2.0;"/><line style="stroke: #000000; stroke-width: 2.0;" x1="551" x2="664" y1="243.25" y2="243.25"/><text fill="#000000" font-family="sans-serif" font-size="14" font-weight="bold" lengthAdjust="spacingAndGlyphs" textLength="100" x="555" y="235.9482">pod: Ingress</text><!--cluster pod: Egress--><polygon fill="#FFFFFF" filter="url(#f1q890q1scem1z)" points="555,401.9531,656,401.9531,663,424.25,739,424.25,739,515.9531,555,515.9531,555,401.9531" style="stroke: #000000; stroke-width: 2.0;"/><line style="stroke: #000000; stroke-width: 2.0;" x1="555" x2="663" y1="424.25" y2="424.25"/><text fill="#000000" font-family="sans-serif" font-size="14" font-weight="bold" lengthAdjust="spacingAndGlyphs" textLength="95" x="559" y="416.9482">pod: Egress</text><!--cluster External/Client--><polygon fill="#90EE90" filter="url(#f1q890q1scem1z)" points="789,410.4531,909,410.4531,916,432.75,919,432.75,919,507.4531,789,507.4531,789,410.4531" style="stroke: #000000; stroke-width: 2.0;"/><line style="stroke: #000000; stroke-width: 2.0;" x1="789" x2="916" y1="432.75" y2="432.75"/><text fill="#000000" font-family="sans-serif" font-size="14" font-weight="bold" lengthAdjust="spacingAndGlyphs" textLength="114" x="793" y="425.4482">External/Client</text><!--cluster External/Server--><polygon fill="#90EE90" filter="url(#f1q890q1scem1z)" points="789,548.4531,917,548.4531,924,570.75,927,570.75,927,645.4531,789,645.4531,789,548.4531" style="stroke: #000000; stroke-width: 2.0;"/><line style="stroke: #000000; stroke-width: 2.0;" x1="789" x2="924" y1="570.75" y2="570.75"/><text fill="#000000" font-family="sans-serif" font-size="14" font-weight="bold" lengthAdjust="spacingAndGlyphs" textLength="122" x="793" y="563.4482">External/Server</text><!--entity rulesAPI--><ellipse cx="78" cy="468.4531" fill="#FEFECE" filter="url(#f1q890q1scem1z)" rx="8" ry="8" style="stroke: #A80036; stroke-width: 2.0;"/><text fill="#000000" font-family="sans-serif" font-size="14" lengthAdjust="spacingAndGlyphs" textLength="64" x="46" y="498.4482">Rules API</text><!--entity Pilot--><rect fill="#FEFECE" filter="url(#f1q890q1scem1z)" height="62.5938" style="stroke: #A80036; stroke-width: 1.5;" width="110" x="153" y="436.9531"/><rect fill="#FEFECE" height="10" style="stroke: #A80036; stroke-width: 1.5;" width="15" x="243" y="441.9531"/><rect fill="#FEFECE" height="2" style="stroke: #A80036; stroke-width: 1.5;" width="4" x="241" y="443.9531"/><rect fill="#FEFECE" height="2" style="stroke: #A80036; stroke-width: 1.5;" width="4" x="241" y="447.9531"/><text fill="#000000" font-family="sans-serif" font-size="14" lengthAdjust="spacingAndGlyphs" textLength="70" x="168" y="469.9482">container:</text><text fill="#000000" font-family="sans-serif" font-size="14" font-weight="bold" lengthAdjust="spacingAndGlyphs" textLength="34" x="168" y="486.2451">Pilot</text><!--entity Mixer--><rect fill="#FEFECE" filter="url(#f1q890q1scem1z)" height="62.5938" style="stroke: #A80036; stroke-width: 1.5;" width="110" x="153" y="574.9531"/><rect fill="#FEFECE" height="10" style="stroke: #A80036; stroke-width: 1.5;" width="15" x="243" y="579.9531"/><rect fill="#FEFECE" height="2" style="stroke: #A80036; stroke-width: 1.5;" width="4" x="241" y="581.9531"/><rect fill="#FEFECE" height="2" style="stroke: #A80036; stroke-width: 1.5;" width="4" x="241" y="585.9531"/><text fill="#000000" font-family="sans-serif" font-size="14" lengthAdjust="spacingAndGlyphs" textLength="70" x="168" y="607.9482">container:</text><text fill="#000000" font-family="sans-serif" font-size="14" font-weight="bold" lengthAdjust="spacingAndGlyphs" textLength="43" x="168" y="624.2451">Mixer</text><!--entity APP1--><rect fill="#FEFECE" filter="url(#f1q890q1scem1z)" height="62.5938" style="stroke: #A80036; stroke-width: 1.5;" width="110" x="384" y="122.9531"/><rect fill="#FEFECE" height="10" style="stroke: #A80036; stroke-width: 1.5;" width="15" x="474" y="127.9531"/><rect fill="#FEFECE" height="2" style="stroke: #A80036; stroke-width: 1.5;" width="4" x="472" y="129.9531"/><rect fill="#FEFECE" height="2" style="stroke: #A80036; stroke-width: 1.5;" width="4" x="472" y="133.9531"/><text fill="#000000" font-family="sans-serif" font-size="14" lengthAdjust="spacingAndGlyphs" textLength="70" x="399" y="155.9482">container:</text><text fill="#000000" font-family="sans-serif" font-size="14" font-weight="bold" lengthAdjust="spacingAndGlyphs" textLength="41" x="404" y="172.2451">APP1</text><!--entity APP1Proxy--><rect fill="#FFFF00" filter="url(#f1q890q1scem1z)" height="62.5938" style="stroke: #A80036; stroke-width: 1.5;" width="143" x="367.5" y="255.9531"/><rect fill="#FFFF00" height="10" style="stroke: #A80036; stroke-width: 1.5;" width="15" x="490.5" y="260.9531"/><rect fill="#FFFF00" height="2" style="stroke: #A80036; stroke-width: 1.5;" width="4" x="488.5" y="262.9531"/><rect fill="#FFFF00" height="2" style="stroke: #A80036; stroke-width: 1.5;" width="4" x="488.5" y="266.9531"/><text fill="#000000" font-family="sans-serif" font-size="14" lengthAdjust="spacingAndGlyphs" textLength="70" x="382.5" y="288.9482">container:</text><text fill="#000000" font-family="sans-serif" font-size="14" font-weight="bold" lengthAdjust="spacingAndGlyphs" textLength="98" x="387.5" y="305.2451">envoy/Proxy</text><!--entity APP2Proxy--><rect fill="#FFFF00" filter="url(#f1q890q1scem1z)" height="62.5938" style="stroke: #A80036; stroke-width: 1.5;" width="143" x="369.5" y="436.9531"/><rect fill="#FFFF00" height="10" style="stroke: #A80036; stroke-width: 1.5;" width="15" x="492.5" y="441.9531"/><rect fill="#FFFF00" height="2" style="stroke: #A80036; stroke-width: 1.5;" width="4" x="490.5" y="443.9531"/><rect fill="#FFFF00" height="2" style="stroke: #A80036; stroke-width: 1.5;" width="4" x="490.5" y="447.9531"/><text fill="#000000" font-family="sans-serif" font-size="14" lengthAdjust="spacingAndGlyphs" textLength="70" x="384.5" y="469.9482">container:</text><text fill="#000000" font-family="sans-serif" font-size="14" font-weight="bold" lengthAdjust="spacingAndGlyphs" textLength="98" x="389.5" y="486.2451">envoy/Proxy</text><!--entity APP2--><rect fill="#FEFECE" filter="url(#f1q890q1scem1z)" height="62.5938" style="stroke: #A80036; stroke-width: 1.5;" width="110" x="386" y="574.9531"/><rect fill="#FEFECE" height="10" style="stroke: #A80036; stroke-width: 1.5;" width="15" x="476" y="579.9531"/><rect fill="#FEFECE" height="2" style="stroke: #A80036; stroke-width: 1.5;" width="4" x="474" y="581.9531"/><rect fill="#FEFECE" height="2" style="stroke: #A80036; stroke-width: 1.5;" width="4" x="474" y="585.9531"/><text fill="#000000" font-family="sans-serif" font-size="14" lengthAdjust="spacingAndGlyphs" textLength="70" x="401" y="607.9482">container:</text><text fill="#000000" font-family="sans-serif" font-size="14" font-weight="bold" lengthAdjust="spacingAndGlyphs" textLength="41" x="406" y="624.2451">APP2</text><!--entity Ingress--><rect fill="#FFFF00" filter="url(#f1q890q1scem1z)" height="62.5938" style="stroke: #A80036; stroke-width: 1.5;" width="157" x="567.5" y="255.9531"/><rect fill="#FFFF00" height="10" style="stroke: #A80036; stroke-width: 1.5;" width="15" x="704.5" y="260.9531"/><rect fill="#FFFF00" height="2" style="stroke: #A80036; stroke-width: 1.5;" width="4" x="702.5" y="262.9531"/><rect fill="#FFFF00" height="2" style="stroke: #A80036; stroke-width: 1.5;" width="4" x="702.5" y="266.9531"/><text fill="#000000" font-family="sans-serif" font-size="14" lengthAdjust="spacingAndGlyphs" textLength="70" x="582.5" y="288.9482">container:</text><text fill="#000000" font-family="sans-serif" font-size="14" font-weight="bold" lengthAdjust="spacingAndGlyphs" textLength="112" x="587.5" y="305.2451">envoy/Ingress</text><!--entity Egress--><rect fill="#FFFF00" filter="url(#f1q890q1scem1z)" height="62.5938" style="stroke: #A80036; stroke-width: 1.5;" width="152" x="571" y="436.9531"/><rect fill="#FFFF00" height="10" style="stroke: #A80036; stroke-width: 1.5;" width="15" x="703" y="441.9531"/><rect fill="#FFFF00" height="2" style="stroke: #A80036; stroke-width: 1.5;" width="4" x="701" y="443.9531"/><rect fill="#FFFF00" height="2" style="stroke: #A80036; stroke-width: 1.5;" width="4" x="701" y="447.9531"/><text fill="#000000" font-family="sans-serif" font-size="14" lengthAdjust="spacingAndGlyphs" textLength="70" x="586" y="469.9482">container:</text><text fill="#000000" font-family="sans-serif" font-size="14" font-weight="bold" lengthAdjust="spacingAndGlyphs" textLength="107" x="591" y="486.2451">envoy/Egress</text><!--entity Client--><rect fill="#FEFECE" filter="url(#f1q890q1scem1z)" height="46.2969" style="stroke: #A80036; stroke-width: 1.5;" width="79" x="804.5" y="445.4531"/><rect fill="#FEFECE" height="10" style="stroke: #A80036; stroke-width: 1.5;" width="15" x="863.5" y="450.4531"/><rect fill="#FEFECE" height="2" style="stroke: #A80036; stroke-width: 1.5;" width="4" x="861.5" y="452.4531"/><rect fill="#FEFECE" height="2" style="stroke: #A80036; stroke-width: 1.5;" width="4" x="861.5" y="456.4531"/><text fill="#000000" font-family="sans-serif" font-size="14" lengthAdjust="spacingAndGlyphs" textLength="39" x="819.5" y="478.4482">Client</text><!--entity Server--><rect fill="#FEFECE" filter="url(#f1q890q1scem1z)" height="46.2969" style="stroke: #A80036; stroke-width: 1.5;" width="84" x="805" y="583.4531"/><rect fill="#FEFECE" height="10" style="stroke: #A80036; stroke-width: 1.5;" width="15" x="869" y="588.4531"/><rect fill="#FEFECE" height="2" style="stroke: #A80036; stroke-width: 1.5;" width="4" x="867" y="590.4531"/><rect fill="#FEFECE" height="2" style="stroke: #A80036; stroke-width: 1.5;" width="4" x="867" y="594.4531"/><text fill="#000000" font-family="sans-serif" font-size="14" lengthAdjust="spacingAndGlyphs" textLength="44" x="820" y="616.4482">Server</text><!--entity Admin--><ellipse cx="78" cy="255.9531" fill="#FEFECE" filter="url(#f1q890q1scem1z)" rx="8" ry="8" style="stroke: #A80036; stroke-width: 2.0;"/><path d="M78,263.9531 L78,290.9531 M65,271.9531 L91,271.9531 M78,290.9531 L65,305.9531 M78,290.9531 L91,305.9531 " fill="#FEFECE" filter="url(#f1q890q1scem1z)" style="stroke: #A80036; stroke-width: 2.0;"/><text fill="#000000" font-family="sans-serif" font-size="14" lengthAdjust="spacingAndGlyphs" textLength="43" x="56.5" y="325.9482">Admin</text><!--link Admin to rulesAPI--><path d="M78,329.0711 C78,369.1321 78,428.0401 78,454.1521 " fill="none" id="Admin-rulesAPI" style="stroke: #0000FF; stroke-width: 1.0;"/><polygon fill="#0000FF" points="78,459.2081,82,450.2081,78,454.2081,74,450.2081,78,459.2081" style="stroke: #0000FF; stroke-width: 1.0;"/><!--link APP1Proxy to Pilot--><path d="M362.527,311.0891 C337.748,320.7891 311.21,333.8951 290,350.9531 C260.801,374.4371 237.443,410.9261 223.239,436.8041 " fill="none" id="APP1Proxy-Pilot" style="stroke: #0000FF; stroke-width: 1.0;"/><polygon fill="#0000FF" points="367.457,309.1951,357.621,308.6911,362.79,310.9894,360.4918,316.1583,367.457,309.1951" style="stroke: #0000FF; stroke-width: 1.0;"/><!--link APP2Proxy to Pilot--><path d="M364.008,468.4531 C330.36,468.4531 296.712,468.4531 263.064,468.4531 " fill="none" id="APP2Proxy-Pilot" style="stroke: #0000FF; stroke-width: 1.0;"/><polygon fill="#0000FF" points="369.409,468.4531,360.409,464.4531,364.409,468.4531,360.409,472.4531,369.409,468.4531" style="stroke: #0000FF; stroke-width: 1.0;"/><!--link APP1Proxy to Mixer--><path d="M383.282,322.1411 C372.273,330.5691 361.507,340.2871 353,350.9531 C300.854,416.3321 323.452,453.1181 279,523.9531 C267.629,542.0731 252.306,560.2171 238.805,574.7701 " fill="none" id="APP1Proxy-Mixer" style="stroke: #0000FF; stroke-width: 1.0;"/><polygon fill="#0000FF" points="387.345,319.0951,377.7441,321.2913,383.3438,322.0935,382.5416,327.6932,387.345,319.0951" style="stroke: #0000FF; stroke-width: 1.0;"/><!--link APP2Proxy to Mixer--><path d="M384.169,502.6251 C346.456,524.6381 297.314,553.3211 260.518,574.7991 " fill="none" id="APP2Proxy-Mixer" style="stroke: #0000FF; stroke-width: 1.0;"/><polygon fill="#0000FF" points="388.71,499.9741,378.9207,501.0553,384.3915,502.4941,382.9526,507.9649,388.71,499.9741" style="stroke: #0000FF; stroke-width: 1.0;"/><!--link rulesAPI to Pilot--><path d="M87.007,468.4531 C100.1972,468.4531 127.556,468.4531 152.822,468.4531 " fill="none" id="rulesAPI-Pilot" style="stroke: #0000FF; stroke-width: 1.0;"/><polygon fill="#0000FF" points="152.822,468.4531,143.822,464.4531,147.822,468.4531,143.822,472.4531,152.822,468.4531" style="stroke: #0000FF; stroke-width: 1.0;"/><!--link rulesAPI to Mixer--><path d="M85.7428,477.5531 C102.9188,495.5221 145.061,539.6091 175.056,570.9881 " fill="none" id="rulesAPI-Mixer" style="stroke: #0000FF; stroke-width: 1.0;"/><polygon fill="#0000FF" points="178.651,574.7491,175.3225,565.4798,175.1956,571.1352,169.5402,571.0084,178.651,574.7491" style="stroke: #0000FF; stroke-width: 1.0;"/><!--link APP1Proxy to APP2Proxy--><path d="M449.828,319.2241 C453.998,350.4411 454.727,398.7231 451.655,431.6381 " fill="none" id="APP1Proxy-APP2Proxy" style="stroke: #A80036; stroke-width: 1.0;"/><polygon fill="#A80036" points="451.129,436.7841,456.0236,428.2376,451.6375,431.8101,448.0651,427.424,451.129,436.7841" style="stroke: #A80036; stroke-width: 1.0;"/><!--link APP2Proxy to APP1Proxy--><path d="M430.768,436.7841 C426.803,405.6051 426.076,357.3251 428.95,324.3761 " fill="none" id="APP2Proxy-APP1Proxy" style="stroke: #A80036; stroke-width: 1.0;"/><polygon fill="#A80036" points="429.442,319.2241,424.6038,327.8027,428.9663,324.2014,432.5675,328.5639,429.442,319.2241" style="stroke: #A80036; stroke-width: 1.0;"/><!--link APP1 to APP1Proxy--><path d="M428.006,186.1671 C425.841,205.5481 425.678,230.6531 427.517,250.8961 " fill="none" id="APP1-APP1Proxy" style="stroke: #A80036; stroke-width: 1.0;"/><polygon fill="#A80036" points="428.027,255.9321,431.0988,246.5746,427.5227,250.9576,423.1396,247.3815,428.027,255.9321" style="stroke: #A80036; stroke-width: 1.0;"/><!--link APP1 to APP1Proxy--><path d="M451.178,191.2111 C453.111,211.4861 452.924,236.5891 450.618,255.9321 " fill="none" id="APP1-APP1Proxy" style="stroke: #A80036; stroke-width: 1.0;"/><polygon fill="#A80036" points="450.641,186.1671,447.6173,195.5404,451.1709,191.139,455.5723,194.6925,450.641,186.1671" style="stroke: #A80036; stroke-width: 1.0;"/><!--link APP2Proxy to APP2--><path d="M429.635,505.0481 C427.64,526.6291 427.8,553.8941 430.115,574.5631 " fill="none" id="APP2Proxy-APP2" style="stroke: #A80036; stroke-width: 1.0;"/><polygon fill="#A80036" points="430.157,499.9741,425.2572,508.5177,429.6455,504.9479,433.2153,509.3361,430.157,499.9741" style="stroke: #A80036; stroke-width: 1.0;"/><!--link APP2Proxy to APP2--><path d="M452.481,499.9741 C454.96,520.5651 455.156,547.8231 453.071,569.4711 " fill="none" id="APP2Proxy-APP2" style="stroke: #A80036; stroke-width: 1.0;"/><polygon fill="#A80036" points="452.525,574.5631,457.4614,566.0407,453.0579,569.5916,449.5069,565.1881,452.525,574.5631" style="stroke: #A80036; stroke-width: 1.0;"/><!--link Ingress to Client--><path d="M700.779,322.0111 C713.766,330.8381 727.249,340.7611 739,350.9531 C773.144,380.5691 807.157,420.7621 826.852,445.3621 " fill="none" id="Ingress-Client" style="stroke: #A80036; stroke-width: 1.0;"/><polygon fill="#A80036" points="696.397,319.0611,701.629,327.4053,700.5447,321.8534,706.0966,320.769,696.397,319.0611" style="stroke: #A80036; stroke-width: 1.0;"/><!--link Egress to Server--><path d="M691.884,499.9741 C727.485,524.1831 776.64,557.6081 810.005,580.2971 " fill="none" id="Egress-Server" style="stroke: #A80036; stroke-width: 1.0;"/><polygon fill="#A80036" points="814.401,583.2861,809.2081,574.9175,810.2664,580.4745,804.7095,581.5329,814.401,583.2861" style="stroke: #A80036; stroke-width: 1.0;"/><!--link APP1Proxy to Ingress--><path d="M515.892,287.4531 C533.073,287.4531 550.254,287.4531 567.435,287.4531 " fill="none" id="APP1Proxy-Ingress" style="stroke: #A80036; stroke-width: 1.0;"/><polygon fill="#A80036" points="510.561,287.4531,519.561,291.4531,515.561,287.4531,519.561,283.4531,510.561,287.4531" style="stroke: #A80036; stroke-width: 1.0;"/><!--link APP2Proxy to Egress--><path d="M512.617,468.4531 C530.371,468.4531 548.124,468.4531 565.877,468.4531 " fill="none" id="APP2Proxy-Egress" style="stroke: #A80036; stroke-width: 1.0;"/><polygon fill="#A80036" points="570.885,468.4531,561.885,464.4531,565.885,468.4531,561.885,472.4531,570.885,468.4531" style="stroke: #A80036; stroke-width: 1.0;"/><rect fill="#DDDDDD" height="58.8906" rx="5" ry="5" style="stroke: #000000; stroke-width: 1.0;" width="369" x="295.5" y="711.9531"/><ellipse cx="307" cy="725.75" fill="#000000" rx="2.5" ry="2.5" style="stroke: #000000; stroke-width: 0.0;"/><text fill="#000000" font-family="sans-serif" font-size="14" lengthAdjust="spacingAndGlyphs" textLength="172" x="314.5" y="729.9482">Blue: Management traffic</text><ellipse cx="307" cy="742.0469" fill="#000000" rx="2.5" ry="2.5" style="stroke: #000000; stroke-width: 0.0;"/><text fill="#000000" font-family="sans-serif" font-size="14" lengthAdjust="spacingAndGlyphs" textLength="128" x="314.5" y="746.2451">Red: Service traffic</text><ellipse cx="307" cy="758.3438" fill="#000000" rx="2.5" ry="2.5" style="stroke: #000000; stroke-width: 0.0;"/><text fill="#000000" font-family="sans-serif" font-size="14" lengthAdjust="spacingAndGlyphs" textLength="344" x="314.5" y="762.542">Arrow indicates connection initiation, not data flow</text><!--
@startuml

title Service landscape - Istio
skinparam componentStyle uml2

actor Admin

package "namespace: Control Plane" #LightSalmon {

  interface "Rules API" as rulesAPI

  package "pod: Pilot" #White {
    component "container:\n<b><b>Pilot</b>" as Pilot
  }
  package "pod: Mixer" #White {
    component "container:\n<b>Mixer</b>" as Mixer
  }
}

package "namespace: Application Service" #LightBlue {

  package "pod: Application 1" #White {
    component "container:\n<b> APP1 </b>" as APP1
    component "container:\n<b> envoy/Proxy</b>" as APP1Proxy #Yellow
  }

  package "pod: Application 2" #White {
    component "container:\n<b> envoy/Proxy</b>" as APP2Proxy #Yellow
    component "container:\n<b> APP2</b>" as APP2
  }

  package "pod: Ingress" #White {
    component "container:\n<b> envoy/Ingress</b>" as Ingress #Yellow
  }
  package "pod: Egress" #White {
    component "container:\n<b> envoy/Egress</b>" as Egress #Yellow
  }

}

package "External/Client" #LightGreen {
  component Client
}
package "External/Server" #LightGreen {
  component Server
}

Admin -d-> rulesAPI #Blue

Pilot -l-> APP1Proxy #Blue
Pilot -l-> APP2Proxy #Blue

Mixer -l-> APP1Proxy #Blue
Mixer -l-> APP2Proxy #Blue

rulesAPI -r-> Pilot #Blue
rulesAPI -d-> Mixer #Blue

APP1Proxy - -> APP2Proxy
APP2Proxy - -> APP1Proxy

APP1 -d-> APP1Proxy
APP1Proxy -u-> APP1

APP2 -u-> APP2Proxy
APP2Proxy -d-> APP2

Client -u-> Ingress
Egress -d-> Server

Ingress -l-> APP1Proxy
APP2Proxy -r-> Egress

legend
  * Blue: Management traffic
  * Red: Service traffic
  * Arrow indicates connection initiation, not data flow
end legend

@enduml

PlantUML version 1.2017.19(Sun Nov 12 22:46:22 AEDT 2017)
(GPL source distribution)
Java Runtime: Java(TM) SE Runtime Environment
JVM: Java HotSpot(TM) 64-Bit Server VM
Java Version: 1.8.0_191-b12
Operating System: Linux
OS Version: 4.4.0-137-generic
Default Encoding: UTF-8
Language: en
Country: US
--></g></svg>