<?xml version="1.0" encoding="UTF-8" standalone="no"?><svg xmlns="http://www.w3.org/2000/svg" xmlns:xlink="http://www.w3.org/1999/xlink" contentScriptType="application/ecmascript" contentStyleType="text/css" height="613px" preserveAspectRatio="none" style="width:484px;height:613px;" version="1.1" viewBox="0 0 484 613" width="484px" zoomAndPan="magnify"><defs><filter height="300%" id="f1rou9v5azdc6m" width="300%" x="-1" y="-1"><feGaussianBlur result="blurOut" stdDeviation="2.0"/><feColorMatrix in="blurOut" result="blurOut2" type="matrix" values="0 0 0 0 0 0 0 0 0 0 0 0 0 0 0 0 0 0 .4 0"/><feOffset dx="4.0" dy="4.0" in="blurOut2" result="blurOut3"/><feBlend in="SourceGraphic" in2="blurOut3" mode="normal"/></filter></defs><g><text fill="#000000" font-family="sans-serif" font-size="18" lengthAdjust="spacingAndGlyphs" textLength="297" x="99.5" y="16.708">Service landscape - sidecar proxy</text><!--cluster namespace: Service--><polygon fill="#ADD8E6" filter="url(#f1rou9v5azdc6m)" points="22,44.9531,188,44.9531,195,67.25,462,67.25,462,541.9531,22,541.9531,22,44.9531" style="stroke: #000000; stroke-width: 2.0;"/><line style="stroke: #000000; stroke-width: 2.0;" x1="22" x2="195" y1="67.25" y2="67.25"/><text fill="#000000" font-family="sans-serif" font-size="14" font-weight="bold" lengthAdjust="spacingAndGlyphs" textLength="160" x="26" y="59.9482">namespace: Service</text><!--cluster pod: Application 1--><polygon fill="#FFFFFF" filter="url(#f1rou9v5azdc6m)" points="150,87.9531,299,87.9531,306,110.25,334,110.25,334,290.9531,150,290.9531,150,87.9531" style="stroke: #000000; stroke-width: 2.0;"/><line style="stroke: #000000; stroke-width: 2.0;" x1="150" x2="306" y1="110.25" y2="110.25"/><text fill="#000000" font-family="sans-serif" font-size="14" font-weight="bold" lengthAdjust="spacingAndGlyphs" textLength="143" x="154" y="102.9482">pod: Application 1</text><!--cluster pod: Application 2--><polygon fill="#FFFFFF" filter="url(#f1rou9v5azdc6m)" points="46,314.9531,195,314.9531,202,337.25,230,337.25,230,517.9531,46,517.9531,46,314.9531" style="stroke: #000000; stroke-width: 2.0;"/><line style="stroke: #000000; stroke-width: 2.0;" x1="46" x2="202" y1="337.25" y2="337.25"/><text fill="#000000" font-family="sans-serif" font-size="14" font-weight="bold" lengthAdjust="spacingAndGlyphs" textLength="143" x="50" y="329.9482">pod: Application 2</text><!--cluster pod: Application 3--><polygon fill="#FFFFFF" filter="url(#f1rou9v5azdc6m)" points="254,314.9531,403,314.9531,410,337.25,438,337.25,438,517.9531,254,517.9531,254,314.9531" style="stroke: #000000; stroke-width: 2.0;"/><line style="stroke: #000000; stroke-width: 2.0;" x1="254" x2="410" y1="337.25" y2="337.25"/><text fill="#000000" font-family="sans-serif" font-size="14" font-weight="bold" lengthAdjust="spacingAndGlyphs" textLength="143" x="258" y="329.9482">pod: Application 3</text><!--entity APP1--><rect fill="#FEFECE" filter="url(#f1rou9v5azdc6m)" height="46.2969" style="stroke: #A80036; stroke-width: 1.5;" width="150" x="167" y="122.9531"/><rect fill="#FEFECE" height="10" style="stroke: #A80036; stroke-width: 1.5;" width="15" x="297" y="127.9531"/><rect fill="#FEFECE" height="2" style="stroke: #A80036; stroke-width: 1.5;" width="4" x="295" y="129.9531"/><rect fill="#FEFECE" height="2" style="stroke: #A80036; stroke-width: 1.5;" width="4" x="295" y="133.9531"/><text fill="#000000" font-family="sans-serif" font-size="14" lengthAdjust="spacingAndGlyphs" textLength="110" x="182" y="155.9482">container: APP1</text><!--entity APP1Proxy--><rect fill="#FEFECE" filter="url(#f1rou9v5azdc6m)" height="46.2969" style="stroke: #A80036; stroke-width: 1.5;" width="151" x="166.5" y="228.9531"/><rect fill="#FEFECE" height="10" style="stroke: #A80036; stroke-width: 1.5;" width="15" x="297.5" y="233.9531"/><rect fill="#FEFECE" height="2" style="stroke: #A80036; stroke-width: 1.5;" width="4" x="295.5" y="235.9531"/><rect fill="#FEFECE" height="2" style="stroke: #A80036; stroke-width: 1.5;" width="4" x="295.5" y="239.9531"/><text fill="#000000" font-family="sans-serif" font-size="14" lengthAdjust="spacingAndGlyphs" textLength="111" x="181.5" y="261.9482">container: Proxy</text><!--entity APP2Proxy--><rect fill="#FEFECE" filter="url(#f1rou9v5azdc6m)" height="46.2969" style="stroke: #A80036; stroke-width: 1.5;" width="151" x="62.5" y="349.9531"/><rect fill="#FEFECE" height="10" style="stroke: #A80036; stroke-width: 1.5;" width="15" x="193.5" y="354.9531"/><rect fill="#FEFECE" height="2" style="stroke: #A80036; stroke-width: 1.5;" width="4" x="191.5" y="356.9531"/><rect fill="#FEFECE" height="2" style="stroke: #A80036; stroke-width: 1.5;" width="4" x="191.5" y="360.9531"/><text fill="#000000" font-family="sans-serif" font-size="14" lengthAdjust="spacingAndGlyphs" textLength="111" x="77.5" y="382.9482">container: Proxy</text><!--entity APP2--><rect fill="#FEFECE" filter="url(#f1rou9v5azdc6m)" height="46.2969" style="stroke: #A80036; stroke-width: 1.5;" width="150" x="63" y="455.9531"/><rect fill="#FEFECE" height="10" style="stroke: #A80036; stroke-width: 1.5;" width="15" x="193" y="460.9531"/><rect fill="#FEFECE" height="2" style="stroke: #A80036; stroke-width: 1.5;" width="4" x="191" y="462.9531"/><rect fill="#FEFECE" height="2" style="stroke: #A80036; stroke-width: 1.5;" width="4" x="191" y="466.9531"/><text fill="#000000" font-family="sans-serif" font-size="14" lengthAdjust="spacingAndGlyphs" textLength="110" x="78" y="488.9482">container: APP2</text><!--entity APP3--><rect fill="#FEFECE" filter="url(#f1rou9v5azdc6m)" height="46.2969" style="stroke: #A80036; stroke-width: 1.5;" width="150" x="271" y="455.9531"/><rect fill="#FEFECE" height="10" style="stroke: #A80036; stroke-width: 1.5;" width="15" x="401" y="460.9531"/><rect fill="#FEFECE" height="2" style="stroke: #A80036; stroke-width: 1.5;" width="4" x="399" y="462.9531"/><rect fill="#FEFECE" height="2" style="stroke: #A80036; stroke-width: 1.5;" width="4" x="399" y="466.9531"/><text fill="#000000" font-family="sans-serif" font-size="14" lengthAdjust="spacingAndGlyphs" textLength="110" x="286" y="488.9482">container: APP3</text><!--entity APP3Proxy--><rect fill="#FEFECE" filter="url(#f1rou9v5azdc6m)" height="46.2969" style="stroke: #A80036; stroke-width: 1.5;" width="151" x="270.5" y="349.9531"/><rect fill="#FEFECE" height="10" style="stroke: #A80036; stroke-width: 1.5;" width="15" x="401.5" y="354.9531"/><rect fill="#FEFECE" height="2" style="stroke: #A80036; stroke-width: 1.5;" width="4" x="399.5" y="356.9531"/><rect fill="#FEFECE" height="2" style="stroke: #A80036; stroke-width: 1.5;" width="4" x="399.5" y="360.9531"/><text fill="#000000" font-family="sans-serif" font-size="14" lengthAdjust="spacingAndGlyphs" textLength="111" x="285.5" y="382.9482">container: Proxy</text><!--link APP1Proxy to APP2Proxy--><path d="M233.458,275.0571 C219.329,295.1351 193.633,324.7681 172.086,345.9721 " fill="none" id="APP1Proxy-APP2Proxy" style="stroke: #A80036; stroke-width: 1.0;"/><polygon fill="#A80036" points="168.391,349.5631,177.6332,346.1598,171.9769,346.0787,172.058,340.4224,168.391,349.5631" style="stroke: #A80036; stroke-width: 1.0;"/><!--link APP2Proxy to APP1Proxy--><path d="M147.345,349.5631 C161.771,329.3951 187.511,299.7581 208.849,278.6341 " fill="none" id="APP2Proxy-APP1Proxy" style="stroke: #A80036; stroke-width: 1.0;"/><polygon fill="#A80036" points="212.505,275.0571,203.2746,278.4922,208.9311,278.5539,208.8694,284.2104,212.505,275.0571" style="stroke: #A80036; stroke-width: 1.0;"/><!--link APP1Proxy to APP3Proxy--><path d="M272.094,275.0571 C292.886,294.9691 318.727,324.2791 334.286,345.4441 " fill="none" id="APP1Proxy-APP3Proxy" style="stroke: #A80036; stroke-width: 1.0;"/><polygon fill="#A80036" points="337.257,349.5631,335.2379,339.9235,334.3327,345.5074,328.7488,344.6023,337.257,349.5631" style="stroke: #A80036; stroke-width: 1.0;"/><!--link APP3Proxy to APP1Proxy--><path d="M316.21,349.5631 C295.556,329.5621 269.752,300.2471 254.126,279.1601 " fill="none" id="APP3Proxy-APP1Proxy" style="stroke: #A80036; stroke-width: 1.0;"/><polygon fill="#A80036" points="251.141,275.0571,253.1998,284.6884,254.0819,279.1007,259.6696,279.9829,251.141,275.0571" style="stroke: #A80036; stroke-width: 1.0;"/><!--link APP2Proxy to APP3Proxy--><path d="M213.562,372.9531 C230.753,372.9531 247.944,372.9531 265.134,372.9531 " fill="none" id="APP2Proxy-APP3Proxy" style="stroke: #A80036; stroke-width: 1.0;"/><polygon fill="#A80036" points="270.469,372.9531,261.469,368.9531,265.469,372.9531,261.469,376.9531,270.469,372.9531" style="stroke: #A80036; stroke-width: 1.0;"/><!--link APP3Proxy to APP2Proxy--><path d="M270.469,372.9531 C253.279,372.9531 236.088,372.9531 218.898,372.9531 " fill="none" id="APP3Proxy-APP2Proxy" style="stroke: #A80036; stroke-width: 1.0;"/><polygon fill="#A80036" points="213.562,372.9531,222.562,376.9531,218.562,372.9531,222.562,368.9531,213.562,372.9531" style="stroke: #A80036; stroke-width: 1.0;"/><!--link APP1 to APP1Proxy--><path d="M231.354,169.0091 C228.81,185.0031 228.573,206.7311 230.643,223.7951 " fill="none" id="APP1-APP1Proxy" style="stroke: #A80036; stroke-width: 1.0;"/><polygon fill="#A80036" points="231.359,228.9291,234.0759,219.4624,230.6675,223.9772,226.1527,220.5688,231.359,228.9291" style="stroke: #A80036; stroke-width: 1.0;"/><!--link APP1 to APP1Proxy--><path d="M254.03,174.1451 C256.218,191.2151 255.964,212.9421 253.267,228.9291 " fill="none" id="APP1-APP1Proxy" style="stroke: #A80036; stroke-width: 1.0;"/><polygon fill="#A80036" points="253.272,169.0091,250.6287,178.4966,254.0019,173.9556,258.543,177.3288,253.272,169.0091" style="stroke: #A80036; stroke-width: 1.0;"/><!--link APP2Proxy to APP2--><path d="M126.639,401.1451 C124.572,418.2151 124.812,439.9421 127.359,455.9291 " fill="none" id="APP2Proxy-APP2" style="stroke: #A80036; stroke-width: 1.0;"/><polygon fill="#A80036" points="127.354,396.0091,122.1504,404.3711,126.6641,400.9613,130.0739,405.475,127.354,396.0091" style="stroke: #A80036; stroke-width: 1.0;"/><!--link APP2Proxy to APP2--><path d="M149.272,396.0091 C151.966,412.0031 152.217,433.7311 150.025,450.7951 " fill="none" id="APP2Proxy-APP2" style="stroke: #A80036; stroke-width: 1.0;"/><polygon fill="#A80036" points="149.267,455.9291,154.5403,447.6109,149.9983,450.9829,146.6263,446.4409,149.267,455.9291" style="stroke: #A80036; stroke-width: 1.0;"/><!--link APP3Proxy to APP3--><path d="M334.639,401.1451 C332.572,418.2151 332.812,439.9421 335.359,455.9291 " fill="none" id="APP3Proxy-APP3" style="stroke: #A80036; stroke-width: 1.0;"/><polygon fill="#A80036" points="335.354,396.0091,330.1504,404.3711,334.6641,400.9613,338.0739,405.475,335.354,396.0091" style="stroke: #A80036; stroke-width: 1.0;"/><!--link APP3Proxy to APP3--><path d="M357.272,396.0091 C359.966,412.0031 360.217,433.7311 358.025,450.7951 " fill="none" id="APP3Proxy-APP3" style="stroke: #A80036; stroke-width: 1.0;"/><polygon fill="#A80036" points="357.267,455.9291,362.5403,447.6109,357.9983,450.9829,354.6263,446.4409,357.267,455.9291" style="stroke: #A80036; stroke-width: 1.0;"/><rect fill="#DDDDDD" height="26.2969" rx="5" ry="5" style="stroke: #000000; stroke-width: 1.0;" width="193" x="151" y="575.9531"/><text fill="#000000" font-family="sans-serif" font-size="14" lengthAdjust="spacingAndGlyphs" textLength="181" x="157" y="593.9482">Connections : 2n + n(n-1)</text><!--
@startuml

title Service landscape - sidecar proxy
skinparam componentStyle uml2

package "namespace: Service" #LightBlue {
  package "pod: Application 1" #White {
    component "container: APP1" as APP1
    component "container: Proxy" as APP1Proxy
  }

  package "pod: Application 2" #White {
    component "container: Proxy" as APP2Proxy
    component "container: APP2" as APP2
  }

  package "pod: Application 3" #White {
   component "container: APP3" as APP3
    component "container: Proxy" as APP3Proxy
  }

}

APP1Proxy - -> APP2Proxy
APP1Proxy - -> APP3Proxy

APP2Proxy - -> APP1Proxy
APP2Proxy - -> APP3Proxy

APP3Proxy - -> APP1Proxy
APP3Proxy - -> APP2Proxy

APP1 -d-> APP1Proxy
APP1Proxy -u-> APP1

APP2 -u-> APP2Proxy
APP2Proxy -d-> APP2

APP3 -u-> APP3Proxy
APP3Proxy -d-> APP3

legend
  Connections : 2n + n(n-1)
end legend

@enduml

PlantUML version 1.2017.19(Sun Nov 12 22:46:22 AEDT 2017)
(GPL source distribution)
Java Runtime: Java(TM) SE Runtime Environment
JVM: Java HotSpot(TM) 64-Bit Server VM
Java Version: 1.8.0_191-b12
Operating System: Linux
OS Version: 4.4.0-137-generic
Default Encoding: UTF-8
Language: en
Country: US
--></g></svg>