<?xml version="1.0" encoding="UTF-8" standalone="no"?><svg xmlns="http://www.w3.org/2000/svg" xmlns:xlink="http://www.w3.org/1999/xlink" contentScriptType="application/ecmascript" contentStyleType="text/css" height="401px" preserveAspectRatio="none" style="width:480px;height:401px;" version="1.1" viewBox="0 0 480 401" width="480px" zoomAndPan="magnify"><defs><filter height="300%" id="f1vee3lel3xnr2" width="300%" x="-1" y="-1"><feGaussianBlur result="blurOut" stdDeviation="2.0"/><feColorMatrix in="blurOut" result="blurOut2" type="matrix" values="0 0 0 0 0 0 0 0 0 0 0 0 0 0 0 0 0 0 .4 0"/><feOffset dx="4.0" dy="4.0" in="blurOut2" result="blurOut3"/><feBlend in="SourceGraphic" in2="blurOut3" mode="normal"/></filter></defs><g><text fill="#000000" font-family="sans-serif" font-size="18" lengthAdjust="spacingAndGlyphs" textLength="338" x="77" y="16.708">Service landscape - direct connections</text><!--cluster namespace: Service--><polygon fill="#ADD8E6" filter="url(#f1vee3lel3xnr2)" points="22,44.9531,188,44.9531,195,67.25,458,67.25,458,329.9531,22,329.9531,22,44.9531" style="stroke: #000000; stroke-width: 2.0;"/><line style="stroke: #000000; stroke-width: 2.0;" x1="22" x2="195" y1="67.25" y2="67.25"/><text fill="#000000" font-family="sans-serif" font-size="14" font-weight="bold" lengthAdjust="spacingAndGlyphs" textLength="160" x="26" y="59.9482">namespace: Service</text><!--cluster pod: Application 1--><polygon fill="#FFFFFF" filter="url(#f1vee3lel3xnr2)" points="149,87.9531,298,87.9531,305,110.25,331,110.25,331,184.9531,149,184.9531,149,87.9531" style="stroke: #000000; stroke-width: 2.0;"/><line style="stroke: #000000; stroke-width: 2.0;" x1="149" x2="305" y1="110.25" y2="110.25"/><text fill="#000000" font-family="sans-serif" font-size="14" font-weight="bold" lengthAdjust="spacingAndGlyphs" textLength="143" x="153" y="102.9482">pod: Application 1</text><!--cluster pod: Application 2--><polygon fill="#FFFFFF" filter="url(#f1vee3lel3xnr2)" points="46,208.9531,195,208.9531,202,231.25,228,231.25,228,305.9531,46,305.9531,46,208.9531" style="stroke: #000000; stroke-width: 2.0;"/><line style="stroke: #000000; stroke-width: 2.0;" x1="46" x2="202" y1="231.25" y2="231.25"/><text fill="#000000" font-family="sans-serif" font-size="14" font-weight="bold" lengthAdjust="spacingAndGlyphs" textLength="143" x="50" y="223.9482">pod: Application 2</text><!--cluster pod: Application 3--><polygon fill="#FFFFFF" filter="url(#f1vee3lel3xnr2)" points="252,208.9531,401,208.9531,408,231.25,434,231.25,434,305.9531,252,305.9531,252,208.9531" style="stroke: #000000; stroke-width: 2.0;"/><line style="stroke: #000000; stroke-width: 2.0;" x1="252" x2="408" y1="231.25" y2="231.25"/><text fill="#000000" font-family="sans-serif" font-size="14" font-weight="bold" lengthAdjust="spacingAndGlyphs" textLength="143" x="256" y="223.9482">pod: Application 3</text><!--entity APP1--><rect fill="#FEFECE" filter="url(#f1vee3lel3xnr2)" height="46.2969" style="stroke: #A80036; stroke-width: 1.5;" width="150" x="165" y="122.9531"/><rect fill="#FEFECE" height="10" style="stroke: #A80036; stroke-width: 1.5;" width="15" x="295" y="127.9531"/><rect fill="#FEFECE" height="2" style="stroke: #A80036; stroke-width: 1.5;" width="4" x="293" y="129.9531"/><rect fill="#FEFECE" height="2" style="stroke: #A80036; stroke-width: 1.5;" width="4" x="293" y="133.9531"/><text fill="#000000" font-family="sans-serif" font-size="14" lengthAdjust="spacingAndGlyphs" textLength="110" x="180" y="155.9482">container: APP1</text><!--entity APP2--><rect fill="#FEFECE" filter="url(#f1vee3lel3xnr2)" height="46.2969" style="stroke: #A80036; stroke-width: 1.5;" width="150" x="62" y="243.9531"/><rect fill="#FEFECE" height="10" style="stroke: #A80036; stroke-width: 1.5;" width="15" x="192" y="248.9531"/><rect fill="#FEFECE" height="2" style="stroke: #A80036; stroke-width: 1.5;" width="4" x="190" y="250.9531"/><rect fill="#FEFECE" height="2" style="stroke: #A80036; stroke-width: 1.5;" width="4" x="190" y="254.9531"/><text fill="#000000" font-family="sans-serif" font-size="14" lengthAdjust="spacingAndGlyphs" textLength="110" x="77" y="276.9482">container: APP2</text><!--entity APP3--><rect fill="#FEFECE" filter="url(#f1vee3lel3xnr2)" height="46.2969" style="stroke: #A80036; stroke-width: 1.5;" width="150" x="268" y="243.9531"/><rect fill="#FEFECE" height="10" style="stroke: #A80036; stroke-width: 1.5;" width="15" x="398" y="248.9531"/><rect fill="#FEFECE" height="2" style="stroke: #A80036; stroke-width: 1.5;" width="4" x="396" y="250.9531"/><rect fill="#FEFECE" height="2" style="stroke: #A80036; stroke-width: 1.5;" width="4" x="396" y="254.9531"/><text fill="#000000" font-family="sans-serif" font-size="14" lengthAdjust="spacingAndGlyphs" textLength="110" x="283" y="276.9482">container: APP3</text><!--link APP1 to APP2--><path d="M231.644,169.0571 C217.683,189.1351 192.236,218.7681 170.868,239.9721 " fill="none" id="APP1-APP2" style="stroke: #A80036; stroke-width: 1.0;"/><polygon fill="#A80036" points="167.203,243.5631,176.4299,240.1188,170.7734,240.0628,170.8294,234.4062,167.203,243.5631" style="stroke: #A80036; stroke-width: 1.0;"/><!--link APP2 to APP1--><path d="M146.157,243.5631 C160.413,223.3951 185.904,193.7581 207.065,172.6341 " fill="none" id="APP2-APP1" style="stroke: #A80036; stroke-width: 1.0;"/><polygon fill="#A80036" points="210.691,169.0571,201.4752,172.5313,207.132,172.569,207.0943,178.2257,210.691,169.0571" style="stroke: #A80036; stroke-width: 1.0;"/><!--link APP1 to APP3--><path d="M269.908,169.0571 C290.533,188.9691 316.128,218.2791 331.509,239.4441 " fill="none" id="APP1-APP3" style="stroke: #A80036; stroke-width: 1.0;"/><polygon fill="#A80036" points="334.445,243.5631,332.4794,233.9124,331.5433,239.4913,325.9644,238.5552,334.445,243.5631" style="stroke: #A80036; stroke-width: 1.0;"/><!--link APP3 to APP1--><path d="M313.398,243.5631 C292.913,223.5621 267.354,194.2471 251.905,173.1601 " fill="none" id="APP3-APP1" style="stroke: #A80036; stroke-width: 1.0;"/><polygon fill="#A80036" points="248.955,169.0571,250.962,178.6993,251.8742,173.1165,257.457,174.0287,248.955,169.0571" style="stroke: #A80036; stroke-width: 1.0;"/><!--link APP2 to APP3--><path d="M212.238,266.9531 C229.057,266.9531 245.876,266.9531 262.695,266.9531 " fill="none" id="APP2-APP3" style="stroke: #A80036; stroke-width: 1.0;"/><polygon fill="#A80036" points="267.914,266.9531,258.914,262.9531,262.914,266.9531,258.914,270.9531,267.914,266.9531" style="stroke: #A80036; stroke-width: 1.0;"/><!--link APP3 to APP2--><path d="M267.914,266.9531 C251.095,266.9531 234.277,266.9531 217.458,266.9531 " fill="none" id="APP3-APP2" style="stroke: #A80036; stroke-width: 1.0;"/><polygon fill="#A80036" points="212.238,266.9531,221.238,270.9531,217.238,266.9531,221.238,262.9531,212.238,266.9531" style="stroke: #A80036; stroke-width: 1.0;"/><rect fill="#DDDDDD" height="26.2969" rx="5" ry="5" style="stroke: #000000; stroke-width: 1.0;" width="155" x="168" y="363.9531"/><text fill="#000000" font-family="sans-serif" font-size="14" lengthAdjust="spacingAndGlyphs" textLength="143" x="174" y="381.9482">Connections : n(n-1)</text><!--
@startuml

title Service landscape - direct connections
skinparam componentStyle uml2

package "namespace: Service" #LightBlue {
  package "pod: Application 1" #White {
    component "container: APP1" as APP1
  }

  package "pod: Application 2" #White {
    component "container: APP2" as APP2
  }

  package "pod: Application 3" #White {
   component "container: APP3" as APP3
  }

}

APP1 - -> APP2
APP1 - -> APP3

APP2 - -> APP1
APP2 - -> APP3

APP3 - -> APP1
APP3 - -> APP2

legend
  Connections : n(n-1)
end legend

@enduml

PlantUML version 1.2017.19(Sun Nov 12 22:46:22 AEDT 2017)
(GPL source distribution)
Java Runtime: Java(TM) SE Runtime Environment
JVM: Java HotSpot(TM) 64-Bit Server VM
Java Version: 1.8.0_191-b12
Operating System: Linux
OS Version: 4.4.0-137-generic
Default Encoding: UTF-8
Language: en
Country: US
--></g></svg>