<?xml version="1.0" encoding="UTF-8" standalone="no"?><svg xmlns="http://www.w3.org/2000/svg" xmlns:xlink="http://www.w3.org/1999/xlink" contentScriptType="application/ecmascript" contentStyleType="text/css" height="755px" preserveAspectRatio="none" style="width:854px;height:755px;" version="1.1" viewBox="0 0 854 755" width="854px" zoomAndPan="magnify"><defs><filter height="300%" id="fsgdynmu4t98o" width="300%" x="-1" y="-1"><feGaussianBlur result="blurOut" stdDeviation="2.0"/><feColorMatrix in="blurOut" result="blurOut2" type="matrix" values="0 0 0 0 0 0 0 0 0 0 0 0 0 0 0 0 0 0 .4 0"/><feOffset dx="4.0" dy="4.0" in="blurOut2" result="blurOut3"/><feBlend in="SourceGraphic" in2="blurOut3" mode="normal"/></filter></defs><g><text fill="#000000" font-family="sans-serif" font-size="18" lengthAdjust="spacingAndGlyphs" textLength="297" x="284.5" y="16.708">Service landscape - sidecar proxy</text><!--cluster namespace: Control Plane--><polygon fill="#FFA07A" filter="url(#fsgdynmu4t98o)" points="22,212.4531,235,212.4531,242,234.75,245,234.75,245,514.4531,22,514.4531,22,212.4531" style="stroke: #000000; stroke-width: 2.0;"/><line style="stroke: #000000; stroke-width: 2.0;" x1="22" x2="242" y1="234.75" y2="234.75"/><text fill="#000000" font-family="sans-serif" font-size="14" font-weight="bold" lengthAdjust="spacingAndGlyphs" textLength="207" x="26" y="227.4482">namespace: Control Plane</text><!--cluster pod: Pilot--><polygon fill="#FFFFFF" filter="url(#fsgdynmu4t98o)" points="83,255.4531,164,255.4531,171,277.75,221,277.75,221,490.4531,83,490.4531,83,255.4531" style="stroke: #000000; stroke-width: 2.0;"/><line style="stroke: #000000; stroke-width: 2.0;" x1="83" x2="171" y1="277.75" y2="277.75"/><text fill="#000000" font-family="sans-serif" font-size="14" font-weight="bold" lengthAdjust="spacingAndGlyphs" textLength="75" x="87" y="270.4482">pod: Pilot</text><!--cluster namespace: Service--><polygon fill="#ADD8E6" filter="url(#fsgdynmu4t98o)" points="269,45.4531,435,45.4531,442,67.75,670,67.75,670,667.9531,269,667.9531,269,45.4531" style="stroke: #000000; stroke-width: 2.0;"/><line style="stroke: #000000; stroke-width: 2.0;" x1="269" x2="442" y1="67.75" y2="67.75"/><text fill="#000000" font-family="sans-serif" font-size="14" font-weight="bold" lengthAdjust="spacingAndGlyphs" textLength="160" x="273" y="60.4482">namespace: Service</text><!--cluster pod: Application 1--><polygon fill="#FFFFFF" filter="url(#fsgdynmu4t98o)" points="293,88.4531,442,88.4531,449,110.75,452,110.75,452,360.9531,293,360.9531,293,88.4531" style="stroke: #000000; stroke-width: 2.0;"/><line style="stroke: #000000; stroke-width: 2.0;" x1="293" x2="449" y1="110.75" y2="110.75"/><text fill="#000000" font-family="sans-serif" font-size="14" font-weight="bold" lengthAdjust="spacingAndGlyphs" textLength="143" x="297" y="103.4482">pod: Application 1</text><!--cluster pod: Application 2--><polygon fill="#FFFFFF" filter="url(#fsgdynmu4t98o)" points="294,384.9531,443,384.9531,450,407.25,453,407.25,453,643.9531,294,643.9531,294,384.9531" style="stroke: #000000; stroke-width: 2.0;"/><line style="stroke: #000000; stroke-width: 2.0;" x1="294" x2="450" y1="407.25" y2="407.25"/><text fill="#000000" font-family="sans-serif" font-size="14" font-weight="bold" lengthAdjust="spacingAndGlyphs" textLength="143" x="298" y="399.9482">pod: Application 2</text><!--cluster pod: Ingress--><polygon fill="#FFFF00" filter="url(#fsgdynmu4t98o)" points="476,246.9531,582,246.9531,589,269.25,646,269.25,646,360.9531,476,360.9531,476,246.9531" style="stroke: #000000; stroke-width: 2.0;"/><line style="stroke: #000000; stroke-width: 2.0;" x1="476" x2="589" y1="269.25" y2="269.25"/><text fill="#000000" font-family="sans-serif" font-size="14" font-weight="bold" lengthAdjust="spacingAndGlyphs" textLength="100" x="480" y="261.9482">pod: Ingress</text><!--cluster pod: Egress--><polygon fill="#FFFF00" filter="url(#fsgdynmu4t98o)" points="479,384.9531,580,384.9531,587,407.25,645,407.25,645,498.9531,479,498.9531,479,384.9531" style="stroke: #000000; stroke-width: 2.0;"/><line style="stroke: #000000; stroke-width: 2.0;" x1="479" x2="587" y1="407.25" y2="407.25"/><text fill="#000000" font-family="sans-serif" font-size="14" font-weight="bold" lengthAdjust="spacingAndGlyphs" textLength="95" x="483" y="399.9482">pod: Egress</text><!--cluster External/Client--><polygon fill="#90EE90" filter="url(#fsgdynmu4t98o)" points="694,393.4531,814,393.4531,821,415.75,824,415.75,824,490.4531,694,490.4531,694,393.4531" style="stroke: #000000; stroke-width: 2.0;"/><line style="stroke: #000000; stroke-width: 2.0;" x1="694" x2="821" y1="415.75" y2="415.75"/><text fill="#000000" font-family="sans-serif" font-size="14" font-weight="bold" lengthAdjust="spacingAndGlyphs" textLength="114" x="698" y="408.4482">External/Client</text><!--cluster External/Server--><polygon fill="#90EE90" filter="url(#fsgdynmu4t98o)" points="694,538.4531,822,538.4531,829,560.75,832,560.75,832,635.4531,694,635.4531,694,538.4531" style="stroke: #000000; stroke-width: 2.0;"/><line style="stroke: #000000; stroke-width: 2.0;" x1="694" x2="829" y1="560.75" y2="560.75"/><text fill="#000000" font-family="sans-serif" font-size="14" font-weight="bold" lengthAdjust="spacingAndGlyphs" textLength="122" x="698" y="553.4482">External/Server</text><!--entity rulesAPI--><rect fill="#FEFECE" filter="url(#fsgdynmu4t98o)" height="46.2969" style="stroke: #A80036; stroke-width: 1.5;" width="104" x="100" y="290.4531"/><rect fill="#FEFECE" height="10" style="stroke: #A80036; stroke-width: 1.5;" width="15" x="184" y="295.4531"/><rect fill="#FEFECE" height="2" style="stroke: #A80036; stroke-width: 1.5;" width="4" x="182" y="297.4531"/><rect fill="#FEFECE" height="2" style="stroke: #A80036; stroke-width: 1.5;" width="4" x="182" y="301.4531"/><text fill="#000000" font-family="sans-serif" font-size="14" lengthAdjust="spacingAndGlyphs" textLength="64" x="115" y="323.4482">Rules API</text><!--entity envoyAPI--><rect fill="#FEFECE" filter="url(#fsgdynmu4t98o)" height="46.2969" style="stroke: #A80036; stroke-width: 1.5;" width="106" x="99" y="428.4531"/><rect fill="#FEFECE" height="10" style="stroke: #A80036; stroke-width: 1.5;" width="15" x="185" y="433.4531"/><rect fill="#FEFECE" height="2" style="stroke: #A80036; stroke-width: 1.5;" width="4" x="183" y="435.4531"/><rect fill="#FEFECE" height="2" style="stroke: #A80036; stroke-width: 1.5;" width="4" x="183" y="439.4531"/><text fill="#000000" font-family="sans-serif" font-size="14" lengthAdjust="spacingAndGlyphs" textLength="66" x="114" y="461.4482">envoy API</text><!--entity APP1--><rect fill="#FEFECE" filter="url(#fsgdynmu4t98o)" height="62.5938" style="stroke: #A80036; stroke-width: 1.5;" width="110" x="318" y="123.4531"/><rect fill="#FEFECE" height="10" style="stroke: #A80036; stroke-width: 1.5;" width="15" x="408" y="128.4531"/><rect fill="#FEFECE" height="2" style="stroke: #A80036; stroke-width: 1.5;" width="4" x="406" y="130.4531"/><rect fill="#FEFECE" height="2" style="stroke: #A80036; stroke-width: 1.5;" width="4" x="406" y="134.4531"/><text fill="#000000" font-family="sans-serif" font-size="14" lengthAdjust="spacingAndGlyphs" textLength="70" x="333" y="156.4482">container:</text><text fill="#000000" font-family="sans-serif" font-size="14" lengthAdjust="spacingAndGlyphs" textLength="36" x="333" y="172.7451">APP1</text><!--entity APP1Proxy--><rect fill="#FEFECE" filter="url(#fsgdynmu4t98o)" height="62.5938" style="stroke: #A80036; stroke-width: 1.5;" width="123" x="311.5" y="281.9531"/><rect fill="#FEFECE" height="10" style="stroke: #A80036; stroke-width: 1.5;" width="15" x="414.5" y="286.9531"/><rect fill="#FEFECE" height="2" style="stroke: #A80036; stroke-width: 1.5;" width="4" x="412.5" y="288.9531"/><rect fill="#FEFECE" height="2" style="stroke: #A80036; stroke-width: 1.5;" width="4" x="412.5" y="292.9531"/><text fill="#000000" font-family="sans-serif" font-size="14" lengthAdjust="spacingAndGlyphs" textLength="70" x="326.5" y="314.9482">container:</text><text fill="#000000" font-family="sans-serif" font-size="14" lengthAdjust="spacingAndGlyphs" textLength="83" x="326.5" y="331.2451">envoy/Proxy</text><!--entity APP2Proxy--><rect fill="#FEFECE" filter="url(#fsgdynmu4t98o)" height="62.5938" style="stroke: #A80036; stroke-width: 1.5;" width="123" x="311.5" y="419.9531"/><rect fill="#FEFECE" height="10" style="stroke: #A80036; stroke-width: 1.5;" width="15" x="414.5" y="424.9531"/><rect fill="#FEFECE" height="2" style="stroke: #A80036; stroke-width: 1.5;" width="4" x="412.5" y="426.9531"/><rect fill="#FEFECE" height="2" style="stroke: #A80036; stroke-width: 1.5;" width="4" x="412.5" y="430.9531"/><text fill="#000000" font-family="sans-serif" font-size="14" lengthAdjust="spacingAndGlyphs" textLength="70" x="326.5" y="452.9482">container:</text><text fill="#000000" font-family="sans-serif" font-size="14" lengthAdjust="spacingAndGlyphs" textLength="83" x="326.5" y="469.2451">envoy/Proxy</text><!--entity APP2--><rect fill="#FEFECE" filter="url(#fsgdynmu4t98o)" height="62.5938" style="stroke: #A80036; stroke-width: 1.5;" width="110" x="318" y="564.9531"/><rect fill="#FEFECE" height="10" style="stroke: #A80036; stroke-width: 1.5;" width="15" x="408" y="569.9531"/><rect fill="#FEFECE" height="2" style="stroke: #A80036; stroke-width: 1.5;" width="4" x="406" y="571.9531"/><rect fill="#FEFECE" height="2" style="stroke: #A80036; stroke-width: 1.5;" width="4" x="406" y="575.9531"/><text fill="#000000" font-family="sans-serif" font-size="14" lengthAdjust="spacingAndGlyphs" textLength="70" x="333" y="597.9482">container:</text><text fill="#000000" font-family="sans-serif" font-size="14" lengthAdjust="spacingAndGlyphs" textLength="36" x="333" y="614.2451">APP2</text><!--entity Ingress--><rect fill="#FEFECE" filter="url(#fsgdynmu4t98o)" height="62.5938" style="stroke: #A80036; stroke-width: 1.5;" width="137" x="492.5" y="281.9531"/><rect fill="#FEFECE" height="10" style="stroke: #A80036; stroke-width: 1.5;" width="15" x="609.5" y="286.9531"/><rect fill="#FEFECE" height="2" style="stroke: #A80036; stroke-width: 1.5;" width="4" x="607.5" y="288.9531"/><rect fill="#FEFECE" height="2" style="stroke: #A80036; stroke-width: 1.5;" width="4" x="607.5" y="292.9531"/><text fill="#000000" font-family="sans-serif" font-size="14" lengthAdjust="spacingAndGlyphs" textLength="70" x="507.5" y="314.9482">container:</text><text fill="#000000" font-family="sans-serif" font-size="14" lengthAdjust="spacingAndGlyphs" textLength="97" x="507.5" y="331.2451">envoy/Ingress</text><!--entity Egress--><rect fill="#FEFECE" filter="url(#fsgdynmu4t98o)" height="62.5938" style="stroke: #A80036; stroke-width: 1.5;" width="134" x="495" y="419.9531"/><rect fill="#FEFECE" height="10" style="stroke: #A80036; stroke-width: 1.5;" width="15" x="609" y="424.9531"/><rect fill="#FEFECE" height="2" style="stroke: #A80036; stroke-width: 1.5;" width="4" x="607" y="426.9531"/><rect fill="#FEFECE" height="2" style="stroke: #A80036; stroke-width: 1.5;" width="4" x="607" y="430.9531"/><text fill="#000000" font-family="sans-serif" font-size="14" lengthAdjust="spacingAndGlyphs" textLength="70" x="510" y="452.9482">container:</text><text fill="#000000" font-family="sans-serif" font-size="14" lengthAdjust="spacingAndGlyphs" textLength="94" x="510" y="469.2451">envoy/Egress</text><!--entity Client--><rect fill="#FEFECE" filter="url(#fsgdynmu4t98o)" height="46.2969" style="stroke: #A80036; stroke-width: 1.5;" width="79" x="709.5" y="428.4531"/><rect fill="#FEFECE" height="10" style="stroke: #A80036; stroke-width: 1.5;" width="15" x="768.5" y="433.4531"/><rect fill="#FEFECE" height="2" style="stroke: #A80036; stroke-width: 1.5;" width="4" x="766.5" y="435.4531"/><rect fill="#FEFECE" height="2" style="stroke: #A80036; stroke-width: 1.5;" width="4" x="766.5" y="439.4531"/><text fill="#000000" font-family="sans-serif" font-size="14" lengthAdjust="spacingAndGlyphs" textLength="39" x="724.5" y="461.4482">Client</text><!--entity Server--><rect fill="#FEFECE" filter="url(#fsgdynmu4t98o)" height="46.2969" style="stroke: #A80036; stroke-width: 1.5;" width="84" x="710" y="573.4531"/><rect fill="#FEFECE" height="10" style="stroke: #A80036; stroke-width: 1.5;" width="15" x="774" y="578.4531"/><rect fill="#FEFECE" height="2" style="stroke: #A80036; stroke-width: 1.5;" width="4" x="772" y="580.4531"/><rect fill="#FEFECE" height="2" style="stroke: #A80036; stroke-width: 1.5;" width="4" x="772" y="584.4531"/><text fill="#000000" font-family="sans-serif" font-size="14" lengthAdjust="spacingAndGlyphs" textLength="44" x="725" y="606.4482">Server</text><!--entity Admin--><ellipse cx="152" cy="123.4531" fill="#FEFECE" filter="url(#fsgdynmu4t98o)" rx="8" ry="8" style="stroke: #A80036; stroke-width: 2.0;"/><path d="M152,131.4531 L152,158.4531 M139,139.4531 L165,139.4531 M152,158.4531 L139,173.4531 M152,158.4531 L165,173.4531 " fill="#FEFECE" filter="url(#fsgdynmu4t98o)" style="stroke: #A80036; stroke-width: 2.0;"/><text fill="#000000" font-family="sans-serif" font-size="14" lengthAdjust="spacingAndGlyphs" textLength="43" x="130.5" y="193.4482">Admin</text><!--link Admin to rulesAPI--><path d="M152,196.6631 C152,224.5651 152,260.8141 152,285.2611 " fill="none" id="Admin-rulesAPI" style="stroke: #0000FF; stroke-width: 1.0;"/><polygon fill="#0000FF" points="152,290.2911,156,281.2911,152,285.2911,148,281.2911,152,290.2911" style="stroke: #0000FF; stroke-width: 1.0;"/><!--link APP1Proxy to envoyAPI--><path d="M319.009,347.6781 C278.283,372.7401 223.546,406.4251 188.021,428.2861 " fill="none" id="APP1Proxy-envoyAPI" style="stroke: #0000FF; stroke-width: 1.0;"/><polygon fill="#0000FF" points="323.403,344.9741,313.6415,346.2833,319.1444,347.5941,317.8336,353.097,323.403,344.9741" style="stroke: #0000FF; stroke-width: 1.0;"/><!--link APP2Proxy to envoyAPI--><path d="M305.95,451.4531 C272.331,451.4531 238.711,451.4531 205.092,451.4531 " fill="none" id="APP2Proxy-envoyAPI" style="stroke: #0000FF; stroke-width: 1.0;"/><polygon fill="#0000FF" points="311.346,451.4531,302.346,447.4531,306.346,451.4531,302.346,455.4531,311.346,451.4531" style="stroke: #0000FF; stroke-width: 1.0;"/><!--link rulesAPI to envoyAPI--><path d="M152,336.6061 C152,360.2171 152,397.6311 152,423.0711 " fill="none" id="rulesAPI-envoyAPI" style="stroke: #0000FF; stroke-width: 1.0;"/><polygon fill="#0000FF" points="152,428.3091,156,419.3091,152,423.3091,148,419.3091,152,428.3091" style="stroke: #0000FF; stroke-width: 1.0;"/><!--link APP1Proxy to APP2Proxy--><path d="M384.481,344.9741 C386.96,365.5651 387.156,392.8231 385.071,414.4711 " fill="none" id="APP1Proxy-APP2Proxy" style="stroke: #A80036; stroke-width: 1.0;"/><polygon fill="#A80036" points="384.525,419.5631,389.4614,411.0407,385.0579,414.5916,381.5069,410.1881,384.525,419.5631" style="stroke: #A80036; stroke-width: 1.0;"/><!--link APP2Proxy to APP1Proxy--><path d="M362.115,419.5631 C359.8,398.8941 359.64,371.6291 361.635,350.0481 " fill="none" id="APP2Proxy-APP1Proxy" style="stroke: #A80036; stroke-width: 1.0;"/><polygon fill="#A80036" points="362.157,344.9741,357.2572,353.5177,361.6455,349.9479,365.2153,354.3361,362.157,344.9741" style="stroke: #A80036; stroke-width: 1.0;"/><!--link APP1 to APP1Proxy--><path d="M362.647,186.4991 C359.658,212.2681 359.464,249.1981 362.067,276.4101 " fill="none" id="APP1-APP1Proxy" style="stroke: #A80036; stroke-width: 1.0;"/><polygon fill="#A80036" points="362.625,281.7171,365.662,272.3482,362.1022,276.7445,357.7058,273.1847,362.625,281.7171" style="stroke: #A80036; stroke-width: 1.0;"/><!--link APP1 to APP1Proxy--><path d="M384.556,191.7961 C387.326,218.9601 387.136,255.8931 383.985,281.7171 " fill="none" id="APP1-APP1Proxy" style="stroke: #A80036; stroke-width: 1.0;"/><polygon fill="#A80036" points="383.962,186.4991,380.9898,195.8888,384.5192,191.468,388.94,194.9973,383.962,186.4991" style="stroke: #A80036; stroke-width: 1.0;"/><!--link APP2Proxy to APP2--><path d="M361.774,488.3511 C359.574,511.9161 359.756,542.4081 362.32,564.8271 " fill="none" id="APP2Proxy-APP2" style="stroke: #A80036; stroke-width: 1.0;"/><polygon fill="#A80036" points="362.314,483.1301,357.407,491.6695,361.7982,488.1035,365.3643,492.4947,362.314,483.1301" style="stroke: #A80036; stroke-width: 1.0;"/><!--link APP2Proxy to APP2--><path d="M384.315,483.1301 C387.025,505.5611 387.214,536.0541 384.881,559.6081 " fill="none" id="APP2Proxy-APP2" style="stroke: #A80036; stroke-width: 1.0;"/><polygon fill="#A80036" points="384.308,564.8271,389.2637,556.3159,384.8522,559.8568,381.3113,555.4453,384.308,564.8271" style="stroke: #A80036; stroke-width: 1.0;"/><!--link Ingress to Client--><path d="M607.35,347.9831 C641.95,373.0131 688.26,406.5131 718.357,428.2861 " fill="none" id="Ingress-Client" style="stroke: #A80036; stroke-width: 1.0;"/><polygon fill="#A80036" points="603.191,344.9741,608.1377,353.4906,607.2418,347.9051,612.8273,347.0093,603.191,344.9741" style="stroke: #A80036; stroke-width: 1.0;"/><!--link Egress to Server--><path d="M602.76,483.1301 C637.301,509.1271 686.229,545.9521 718.52,570.2551 " fill="none" id="Egress-Server" style="stroke: #A80036; stroke-width: 1.0;"/><polygon fill="#A80036" points="722.765,573.4501,717.9793,564.8422,718.77,570.4435,713.1687,571.2342,722.765,573.4501" style="stroke: #A80036; stroke-width: 1.0;"/><!--link APP1Proxy to Ingress--><path d="M440.1,313.4531 C457.538,313.4531 474.977,313.4531 492.416,313.4531 " fill="none" id="APP1Proxy-Ingress" style="stroke: #A80036; stroke-width: 1.0;"/><polygon fill="#A80036" points="434.688,313.4531,443.688,317.4531,439.688,313.4531,443.688,309.4531,434.688,313.4531" style="stroke: #A80036; stroke-width: 1.0;"/><!--link APP2Proxy to Egress--><path d="M434.646,451.4531 C452.987,451.4531 471.327,451.4531 489.668,451.4531 " fill="none" id="APP2Proxy-Egress" style="stroke: #A80036; stroke-width: 1.0;"/><polygon fill="#A80036" points="494.841,451.4531,485.841,447.4531,489.841,451.4531,485.841,455.4531,494.841,451.4531" style="stroke: #A80036; stroke-width: 1.0;"/><rect fill="#DDDDDD" height="42.5938" rx="5" ry="5" style="stroke: #000000; stroke-width: 1.0;" width="197" x="334" y="701.9531"/><ellipse cx="345.5" cy="715.75" fill="#000000" rx="2.5" ry="2.5" style="stroke: #000000; stroke-width: 0.0;"/><text fill="#000000" font-family="sans-serif" font-size="14" lengthAdjust="spacingAndGlyphs" textLength="172" x="353" y="719.9482">Blue: Management traffic</text><ellipse cx="345.5" cy="732.0469" fill="#000000" rx="2.5" ry="2.5" style="stroke: #000000; stroke-width: 0.0;"/><text fill="#000000" font-family="sans-serif" font-size="14" lengthAdjust="spacingAndGlyphs" textLength="128" x="353" y="736.2451">Red: Service traffic</text><!--
@startuml

title Service landscape - sidecar proxy
skinparam componentStyle uml2

actor Admin

package "namespace: Control Plane" #LightSalmon {

  package "pod: Pilot" #White {
    component "Rules API" as rulesAPI
    component "envoy API" as envoyAPI
  }
}

package "namespace: Service" #LightBlue {

  package "pod: Application 1" #White {
    component "container:\n APP1" as APP1
    component "container:\n envoy/Proxy" as APP1Proxy
  }

  package "pod: Application 2" #White {
    component "container:\n envoy/Proxy" as APP2Proxy
    component "container:\n APP2" as APP2
  }

  package "pod: Ingress" #Yellow {
    component "container:\n envoy/Ingress" as Ingress
  }
  package "pod: Egress" #Yellow {
    component "container:\n envoy/Egress" as Egress
  }

}

package "External/Client" #LightGreen {
  component Client
}
package "External/Server" #LightGreen {
  component Server
}

Admin -d-> rulesAPI #Blue

envoyAPI -l-> APP1Proxy #Blue
envoyAPI -l-> APP2Proxy #Blue

rulesAPI -d-> envoyAPI #Blue

APP1Proxy - -> APP2Proxy
APP2Proxy - -> APP1Proxy

APP1 -d-> APP1Proxy
APP1Proxy -u-> APP1

APP2 -u-> APP2Proxy
APP2Proxy -d-> APP2

Client -u-> Ingress
Egress -d-> Server

Ingress -l-> APP1Proxy
APP2Proxy -r-> Egress


legend
  * Blue: Management traffic
  * Red: Service traffic
end legend

@enduml

PlantUML version 1.2017.19(Sun Nov 12 22:46:22 AEDT 2017)
(GPL source distribution)
Java Runtime: Java(TM) SE Runtime Environment
JVM: Java HotSpot(TM) 64-Bit Server VM
Java Version: 1.8.0_191-b12
Operating System: Linux
OS Version: 4.4.0-137-generic
Default Encoding: UTF-8
Language: en
Country: US
--></g></svg>